# xmcd
#
# Track frame offsets:
#	150
#	14111
#	27932
#	42640
#	58251
#	75035
#	91921
#	108937
#	126835
#	145419
#	156751
#	174948
#	194820
#	214062
#	230410
#	246841
#	257218
#
# Disc length: 3679 seconds
#
# Revision: 1
# Processed by: cddbd v1.5.2PL0 Copyright (c) Steve Scherf et al.
# Submitted via: audiograbber 1.83.01
#
DISCID=ef0e5d11
DTITLE=Various Artist - CDTEX Jan08 Vol 61
DYEAR=2008
DGENRE=
TTITLE0=Lauren Alexander - Perfume And Gasoline
TTITLE1=Jerry Audley - Lucky Me Lonely You
TTITLE2=The Captain Legendary Band - Train Song
TTITLE3=Walt Wilkins and the Mystiqueros - The Shape I'm In
TTITLE4=The Pear Ratz - Senses
TTITLE5=Robin English - Mamas Don't Let Your Babies Grow Up To Be Babies
TTITLE6=Jerry Lee Surber - Can't You See?
TTITLE7=The Bellamy Brothers - Drug Problem
TTITLE8=Gary Flood - 23 And Over The Hill
TTITLE9=Wicked Brew Band - I'm Alright
TTITLE10=Wild Horses - Bog Boned Sexy Woman
TTITLE11=Chute Nine - 80 Acres
TTITLE12=Indian Rodeo - Radio
TTITLE13=Bobby Chitwood - Beer Toast
TTITLE14=The Hogg Maulies - On Your Own Tonight
TTITLE15=LA Outlaws - Walking The Line
TTITLE16=Glenna Bell - How I Found Out I'm Insane
EXTD=
EXTT0=
EXTT1=
EXTT2=
EXTT3=
EXTT4=
EXTT5=
EXTT6=
EXTT7=
EXTT8=
EXTT9=
EXTT10=
EXTT11=
EXTT12=
EXTT13=
EXTT14=
EXTT15=
EXTT16=
PLAYORDER=
